<?xml version="1.0" encoding="utf-8"?>
<!DOCTYPE svg PUBLIC "-//W3C//DTD SVG 1.1//EN" "http://www.w3.org/Graphics/SVG/1.1/DTD/svg11.dtd">
<svg version="1.1" id="Calque_1" xmlns="http://www.w3.org/2000/svg"
     xmlns:xlink="http://www.w3.org/1999/xlink" x="0px" y="0px"
     viewBox="0 0 150 60" enable-background="new 0 0 150 60" xml:space="preserve">
  <g>
    <g>
      <path fill="none" d="M132.3,13.8c2.7,0,5.1,0.3,7.2,0.9c0.7-10.5-16.6-11-15.6,0.6C126.4,14.4,129.3,13.8,132.3,13.8z"/>
      <path fill="none" d="M91.4,23.8c-5.1,0-8.5,3.7-9.5,9.3h18.7C99.9,27.6,96.6,23.8,91.4,23.8z"/>
      <path fill="#1A1A1A"
            d="M142.7,44.1c-3,2.9-5.9,4.7-10,4.7c-6.8,0-11.1-5.4-11.1-12.1v-0.2c0-6.5,4.4-11.9,10.6-11.9
               c4.4,0,7.2,1.9,10,4.8l7.6-8.2c-1.2-1.3-2.4-2.5-3.8-3.4c0.1-2.2,0.5-4.3,0.2-6.2c-1.1-7.3-8-12.2-15.5-11.7
               c-7.1,0.5-10.8,4.2-12.5,8.4c-1.3,3.1-0.3,6.8-0.6,10.7c-2.8,2.3-5,5.3-6.4,8.7c-2.8-7.9-9.2-13.8-19.7-13.8
               c-12.3,0-21,9.6-21.6,21.5c-2.6-1.9-6-3.2-9.1-4.2c-5-1.7-9.5-3-9.5-5.6v-0.2c0-1.8,1.7-3.2,4.9-3.2c3.4,0,8,1.7,12.6,4.3l5-9.1
               C68.7,14,62.3,12,56.4,12c-7.1,0-13.1,3-15.7,8.5c1.5,2.6,2.2,5.8,2.2,9.5v5.7c2.7,2.7,6.7,4.1,10.4,5.2c5.1,1.6,9.6,2.5,9.6,5.4
               v0.2c0,2.1-1.7,3.5-5.6,3.5c-4.3,0-9.5-1.9-14.4-5.4v12.2c4.6,2.3,9.6,3.3,14.1,3.3c8.1,0,14.8-3.1,17-9.7
               c4.1,5.6,10.7,8.9,18.6,8.9c7.9,0,13.8-3.1,17.9-8.2l-7.1-6.3c-3.4,3.2-6.5,4.5-10.6,4.5c-5.6,0-9.5-2.9-10.7-8.6h27.6
               c1.8,10.5,10.7,18.5,22.4,18.5c8.7,0,13.6-3.3,17.9-8L142.7,44.1z
               M139.5,14.7c-2.1-0.6-4.5-0.9-7.2-0.9c-3,0-5.9,0.5-8.4,1.5
               C122.9,3.7,140.2,4.2,139.5,14.7z
               M81.9,33.1c1-5.6,4.3-9.3,9.5-9.3c5.2,0,8.5,3.8,9.2,9.3H81.9z"/>
    </g>
    <path fill="#1C75BC"
          d="M27.7,58.4V34c0-5.9-2.8-8.9-7.5-8.9c-4.7,0-7.8,3-7.8,8.9v24.4H0V18l12.4-6.2v9.1c2.9-3.7,6.5-7,12.8-7
             c9.4,0,14.9,6.2,14.9,16.3v28.3H27.7z"/>
  </g>
</svg>
